<?xml version="1.0" standalone="no"?>
<!DOCTYPE svg PUBLIC "-//W3C//DTD SVG 20010904//EN"
 "http://www.w3.org/TR/2001/REC-SVG-20010904/DTD/svg10.dtd">
<svg version="1.0" xmlns="http://www.w3.org/2000/svg"
 width="500.000000pt" height="500.000000pt" viewBox="0 0 500.000000 500.000000"
 preserveAspectRatio="xMidYMid meet">

<g transform="translate(0.000000,500.000000) scale(0.100000,-0.100000)"
 stroke="none">
<path fill="#8F2AAC" d="M3721 3221 c-14 -25 -14 -91 -1 -125 9 -23 15 -26 63 -26 49 0 56 -3
95 -43 l42 -43 0 -80 c0 -72 -2 -83 -24 -103 -23 -22 -33 -23 -134 -22 -79 2
-120 -2 -146 -13 l-36 -15 0 -138 c0 -76 4 -143 8 -150 15 -24 69 -34 175 -32
l109 1 44 -43 c39 -39 44 -48 44 -89 0 -71 13 -82 95 -78 l70 3 3 55 c3 53 5
57 75 128 l71 72 91 0 c57 0 95 4 103 12 16 16 16 210 0 226 -8 8 -48 12 -114
12 -129 0 -134 -5 -134 -126 l0 -82 -67 -66 c-61 -59 -72 -66 -108 -66 -35 0
-47 6 -83 43 l-42 43 0 130 c0 123 1 132 23 152 20 19 35 22 114 22 118 0 123
5 123 128 0 124 -8 132 -128 132 l-88 0 -41 43 c-38 38 -42 48 -45 97 l-3 55
-72 3 c-63 2 -73 0 -82 -17z"/>
<path fill="#545454" d="M440 2759 l0 -351 148 4 c133 3 152 6 202 30 67 31 113 76 148 143
22 43 27 65 30 160 5 141 -16 204 -92 280 -73 73 -115 85 -293 85 l-143 0 0
-351z m295 221 c27 -13 50 -34 66 -63 21 -37 24 -54 24 -152 0 -99 -3 -115
-25 -154 -33 -59 -71 -80 -151 -83 l-64 -3 -3 238 -2 237 57 0 c36 0 71 -7 98
-20z"/>
<path fill="#545454" d="M2130 2761 l0 -351 70 0 70 0 0 124 0 123 109 5 c93 4 117 8 165 32
78 38 109 86 114 175 5 91 -31 162 -102 206 l-49 30 -189 3 -188 4 0 -351z
m330 224 c41 -21 64 -68 57 -118 -10 -71 -58 -96 -189 -97 l-58 0 0 115 0 115
80 0 c53 0 91 -5 110 -15z"/>
<path fill="#8F2AAC" d="M2770 2760 l0 -350 71 0 72 0 -6 258 c-4 141 -4 253 -2 247 3 -5 45
-120 94 -255 l88 -245 49 -3 49 -3 94 261 c52 143 95 260 96 260 1 0 0 -117
-3 -260 l-5 -260 72 0 71 0 0 350 0 351 -97 -3 -97 -3 -85 -242 c-48 -133 -89
-244 -92 -248 -3 -3 -46 107 -94 245 l-89 250 -93 0 -93 0 0 -350z"/>
<path fill="#545454" d="M1212 2929 c-48 -14 -116 -86 -135 -144 -21 -61 -22 -169 -2 -226 20
-57 77 -114 134 -136 93 -36 227 -15 284 45 l26 27 -33 36 c-33 35 -33 35 -56
17 -32 -26 -93 -42 -133 -34 -40 7 -97 64 -97 96 0 19 8 20 166 20 l167 0 -5
75 c-6 94 -37 158 -97 200 -36 25 -52 30 -114 32 -40 1 -87 -2 -105 -8z m140
-110 c18 -10 48 -65 48 -89 0 -6 -38 -10 -100 -10 -84 0 -100 3 -100 15 0 24
28 73 47 84 24 14 79 14 105 0z"/>
<path fill="#545454" d="M1572 2918 c3 -7 42 -125 88 -261 l82 -248 66 3 66 3 88 258 87 257
-72 0 -72 0 -45 -166 c-24 -91 -47 -167 -51 -169 -3 -3 -20 48 -38 113 -18 64
-39 141 -47 170 l-15 52 -71 0 c-52 0 -69 -3 -66 -12z"/>
</g>
</svg>
